<svg width="406" height="73" viewBox="0 0 406 73" fill="none" xmlns="http://www.w3.org/2000/svg">
<g filter="url(#filter0_d_19_222)">
<rect x="4" width="398" height="65" fill="#CFF4F4"/>
<rect x="4.5" y="0.5" width="397" height="64" stroke="black"/>
</g>
<path d="M126.905 32.6519V18.4331C126.905 17.8065 127.19 17.4932 127.76 17.4932H129.332C129.902 17.4932 130.187 17.8065 130.187 18.4331V32.1392C130.187 35.3293 130.637 37.4142 131.537 38.394C132.448 39.3625 133.929 39.8467 135.98 39.8467C138.031 39.8467 139.506 39.3625 140.406 38.394C141.318 37.4142 141.773 35.3293 141.773 32.1392V18.4331C141.773 17.8065 142.058 17.4932 142.628 17.4932H144.2C144.77 17.4932 145.055 17.8065 145.055 18.4331V32.6519C145.055 36.2635 144.223 38.8099 142.56 40.291C140.908 41.7721 138.714 42.5127 135.98 42.5127C133.246 42.5127 131.047 41.7721 129.383 40.291C127.731 38.8099 126.905 36.2635 126.905 32.6519ZM149.686 40.3252C149.333 39.9948 149.259 39.6872 149.464 39.4023L150.233 38.3257C150.484 37.9839 150.854 38.001 151.344 38.377C152.016 38.8896 152.762 39.2998 153.583 39.6074C154.414 39.915 155.36 40.0688 156.419 40.0688C157.046 40.0688 157.604 39.9948 158.094 39.8467C158.584 39.6872 159.011 39.3966 159.376 38.9751C159.752 38.5535 159.94 37.9896 159.94 37.2832C159.94 36.873 159.849 36.4857 159.667 36.1211C159.496 35.7565 159.222 35.466 158.846 35.2495C158.482 35.0216 158.123 34.8451 157.77 34.7197C157.188 34.5033 156.607 34.3267 156.026 34.1899C155.457 34.0418 154.705 33.8197 153.771 33.5234C153.144 33.3298 152.551 33.0563 151.993 32.7031C151.435 32.3385 150.945 31.8486 150.523 31.2334C150.113 30.6182 149.908 29.7694 149.908 28.687C149.908 27.5819 150.244 26.6305 150.917 25.833C151.589 25.0355 152.432 24.4943 153.446 24.2095C154.46 23.9132 155.445 23.7651 156.402 23.7651C157.815 23.7651 158.949 23.9303 159.803 24.2607C160.669 24.5798 161.415 24.9614 162.042 25.4058C162.407 25.6678 162.458 25.9697 162.196 26.3115L161.427 27.3369C161.188 27.6673 160.817 27.6559 160.316 27.3027C159.894 27.0065 159.296 26.7274 158.521 26.4653C157.747 26.2033 157.069 26.0723 156.488 26.0723C155.77 26.0723 155.155 26.152 154.642 26.3115C154.129 26.471 153.714 26.7445 153.395 27.1318C153.076 27.5192 152.916 27.9749 152.916 28.499C152.916 28.8978 152.979 29.2567 153.104 29.5757C153.229 29.8833 153.463 30.1681 153.805 30.4302C154.146 30.6922 154.625 30.903 155.24 31.0625C156.197 31.3132 157.069 31.541 157.855 31.7461C158.653 31.9512 159.37 32.2018 160.008 32.498C160.84 32.8854 161.478 33.3127 161.922 33.7798C162.378 34.2469 162.691 34.7539 162.862 35.3008C163.033 35.8363 163.119 36.4344 163.119 37.0952C163.119 38.3143 162.754 39.3454 162.025 40.1885C161.307 41.0316 160.504 41.5955 159.615 41.8804C158.727 42.1538 157.656 42.2905 156.402 42.2905C154.705 42.2905 153.246 42.0513 152.027 41.5728C150.82 41.0828 150.039 40.667 149.686 40.3252ZM165.545 33.0278C165.545 30.2023 166.252 27.9521 167.665 26.2773C169.077 24.6025 171.1 23.7651 173.731 23.7651C175.919 23.7651 177.73 24.5342 179.166 26.0723C180.613 27.599 181.336 30.0428 181.336 33.4038C181.336 33.9165 181.103 34.1729 180.636 34.1729H168.724C168.918 36.3717 169.51 37.9041 170.501 38.77C171.493 39.6245 172.615 40.0518 173.868 40.0518C175.19 40.0518 176.204 39.8296 176.91 39.3853C177.617 38.9409 178.135 38.5023 178.465 38.0693C178.83 37.5908 179.183 37.4997 179.525 37.7959L180.533 38.6675C180.795 38.8953 180.795 39.2087 180.533 39.6074C180.317 39.9378 179.696 40.4676 178.67 41.1968C177.656 41.9259 176.056 42.2905 173.868 42.2905C171.02 42.2905 168.918 41.4531 167.562 39.7783C166.218 38.1035 165.545 35.8534 165.545 33.0278ZM168.656 31.9512H178.312C178.266 30.3561 177.856 28.9604 177.081 27.7642C176.306 26.5565 175.167 25.9526 173.663 25.9526C172.341 25.9526 171.219 26.397 170.296 27.2856C169.374 28.1629 168.827 29.7181 168.656 31.9512ZM186.053 42C185.541 42 185.284 41.7437 185.284 41.231V24.8247C185.284 24.312 185.541 24.0557 186.053 24.0557H187.489C188.001 24.0557 188.258 24.312 188.258 24.8247V26.8755H188.326C188.873 25.8501 189.517 25.0754 190.257 24.5513C190.998 24.0272 191.921 23.7651 193.026 23.7651C193.755 23.7651 194.268 23.8278 194.564 23.9531C194.826 24.0557 194.923 24.2266 194.854 24.4658L194.461 25.8672C194.404 26.0723 194.256 26.152 194.017 26.1064C193.618 26.0267 193.242 25.9868 192.889 25.9868C191.556 25.9868 190.457 26.5907 189.591 27.7983C188.725 28.9946 188.292 30.6296 188.292 32.7031V41.231C188.292 41.7437 188.036 42 187.523 42H186.053ZM198.392 42C197.879 42 197.623 41.7437 197.623 41.231V24.8247C197.623 24.312 197.879 24.0557 198.392 24.0557H199.828C200.34 24.0557 200.597 24.312 200.597 24.8247V26.1919H200.665C201.406 25.3716 202.203 24.762 203.058 24.3633C203.912 23.9645 204.977 23.7651 206.253 23.7651C208.327 23.7651 209.814 24.3519 210.714 25.5254C211.625 26.6875 212.081 28.2826 212.081 30.3105V41.231C212.081 41.7437 211.825 42 211.312 42H209.842C209.33 42 209.073 41.7437 209.073 41.231V31.1309C209.073 28.8978 208.703 27.485 207.962 26.8926C207.222 26.2887 206.282 25.9868 205.143 25.9868C203.661 25.9868 202.539 26.4312 201.776 27.3198C201.013 28.1971 200.631 29.7067 200.631 31.8486V41.231C200.631 41.7437 200.375 42 199.862 42H198.392ZM215.926 37.2148C215.926 35.1868 216.872 33.7 218.763 32.7544C220.666 31.8088 223.503 31.2562 227.274 31.0967V29.9346C227.274 28.8636 227.029 27.9408 226.539 27.166C226.061 26.3799 225.104 25.9868 223.668 25.9868C222.757 25.9868 222.027 26.078 221.48 26.2603C220.934 26.4312 220.432 26.6647 219.977 26.9609C219.532 27.2458 219.105 27.616 218.695 28.0718C218.387 28.4136 218.097 28.4307 217.823 28.123L216.935 27.0977C216.684 26.8128 216.769 26.471 217.191 26.0723C217.795 25.5026 218.382 25.0754 218.951 24.7905C219.521 24.5057 220.227 24.2664 221.07 24.0728C221.925 23.8677 222.791 23.7651 223.668 23.7651C226.049 23.7651 227.747 24.3804 228.761 25.6108C229.775 26.8299 230.282 28.5047 230.282 30.6353V41.231C230.282 41.7437 230.025 42 229.513 42H227.975C227.53 42 227.308 41.7437 227.308 41.231V40.3936H227.274C226.374 41.0999 225.491 41.5955 224.625 41.8804C223.771 42.1538 222.813 42.2905 221.754 42.2905C219.885 42.2905 218.444 41.8462 217.43 40.9575C216.428 40.0575 215.926 38.8099 215.926 37.2148ZM219.037 37.2832C219.037 37.9896 219.185 38.5592 219.481 38.9922C219.777 39.4137 220.187 39.6872 220.711 39.8125C221.236 39.9264 221.782 39.9834 222.352 39.9834C223.229 39.9834 224.061 39.8979 224.847 39.7271C225.633 39.5562 226.442 39.1061 227.274 38.377V33.3354C224.972 33.5063 223.332 33.7171 222.352 33.9678C221.372 34.207 220.575 34.6286 219.959 35.2324C219.344 35.8249 219.037 36.5085 219.037 37.2832ZM235.921 42C235.409 42 235.152 41.7437 235.152 41.231V24.8247C235.152 24.312 235.409 24.0557 235.921 24.0557H237.357C237.87 24.0557 238.126 24.312 238.126 24.8247V26.1919H238.194C238.935 25.3716 239.738 24.762 240.604 24.3633C241.47 23.9645 242.302 23.7651 243.099 23.7651C244.569 23.7651 245.697 24.1354 246.483 24.876C247.28 25.6051 247.793 26.34 248.021 27.0806H248.089C248.716 26.1463 249.508 25.3602 250.465 24.7222C251.422 24.0841 252.442 23.7651 253.524 23.7651C255.335 23.7651 256.703 24.3519 257.625 25.5254C258.548 26.6875 259.01 28.2826 259.01 30.3105V41.231C259.01 41.7437 258.753 42 258.241 42H256.771C256.258 42 256.002 41.7437 256.002 41.231V31.3018C256.002 29.0687 255.723 27.6274 255.165 26.978C254.606 26.3172 253.746 25.9868 252.584 25.9868C251.445 25.9868 250.493 26.4767 249.73 27.4565C248.967 28.425 248.585 29.889 248.585 31.8486V41.231C248.585 41.7437 248.329 42 247.816 42H246.346C245.833 42 245.577 41.7437 245.577 41.231V31.3018C245.577 29.0687 245.298 27.6274 244.74 26.978C244.181 26.3172 243.321 25.9868 242.159 25.9868C241.02 25.9868 240.069 26.4312 239.305 27.3198C238.542 28.1971 238.16 29.7067 238.16 31.8486V41.231C238.16 41.7437 237.904 42 237.391 42H235.921ZM262.855 33.0278C262.855 30.2023 263.561 27.9521 264.974 26.2773C266.387 24.6025 268.409 23.7651 271.041 23.7651C273.229 23.7651 275.04 24.5342 276.476 26.0723C277.923 27.599 278.646 30.0428 278.646 33.4038C278.646 33.9165 278.412 34.1729 277.945 34.1729H266.034C266.227 36.3717 266.82 37.9041 267.811 38.77C268.802 39.6245 269.924 40.0518 271.178 40.0518C272.499 40.0518 273.513 39.8296 274.22 39.3853C274.926 38.9409 275.444 38.5023 275.775 38.0693C276.139 37.5908 276.493 37.4997 276.834 37.7959L277.843 38.6675C278.105 38.8953 278.105 39.2087 277.843 39.6074C277.626 39.9378 277.005 40.4676 275.98 41.1968C274.966 41.9259 273.365 42.2905 271.178 42.2905C268.329 42.2905 266.227 41.4531 264.872 39.7783C263.527 38.1035 262.855 35.8534 262.855 33.0278ZM265.965 31.9512H275.621C275.576 30.3561 275.165 28.9604 274.391 27.7642C273.616 26.5565 272.477 25.9526 270.973 25.9526C269.651 25.9526 268.529 26.397 267.606 27.2856C266.683 28.1629 266.136 29.7181 265.965 31.9512Z" fill="#232526" fill-opacity="0.61"/>
<path d="M126.905 32.6519V18.4331C126.905 17.8065 127.19 17.4932 127.76 17.4932H129.332C129.902 17.4932 130.187 17.8065 130.187 18.4331V32.1392C130.187 35.3293 130.637 37.4142 131.537 38.394C132.448 39.3625 133.929 39.8467 135.98 39.8467C138.031 39.8467 139.506 39.3625 140.406 38.394C141.318 37.4142 141.773 35.3293 141.773 32.1392V18.4331C141.773 17.8065 142.058 17.4932 142.628 17.4932H144.2C144.77 17.4932 145.055 17.8065 145.055 18.4331V32.6519C145.055 36.2635 144.223 38.8099 142.56 40.291C140.908 41.7721 138.714 42.5127 135.98 42.5127C133.246 42.5127 131.047 41.7721 129.383 40.291C127.731 38.8099 126.905 36.2635 126.905 32.6519ZM149.686 40.3252C149.333 39.9948 149.259 39.6872 149.464 39.4023L150.233 38.3257C150.484 37.9839 150.854 38.001 151.344 38.377C152.016 38.8896 152.762 39.2998 153.583 39.6074C154.414 39.915 155.36 40.0688 156.419 40.0688C157.046 40.0688 157.604 39.9948 158.094 39.8467C158.584 39.6872 159.011 39.3966 159.376 38.9751C159.752 38.5535 159.94 37.9896 159.94 37.2832C159.94 36.873 159.849 36.4857 159.667 36.1211C159.496 35.7565 159.222 35.466 158.846 35.2495C158.482 35.0216 158.123 34.8451 157.77 34.7197C157.188 34.5033 156.607 34.3267 156.026 34.1899C155.457 34.0418 154.705 33.8197 153.771 33.5234C153.144 33.3298 152.551 33.0563 151.993 32.7031C151.435 32.3385 150.945 31.8486 150.523 31.2334C150.113 30.6182 149.908 29.7694 149.908 28.687C149.908 27.5819 150.244 26.6305 150.917 25.833C151.589 25.0355 152.432 24.4943 153.446 24.2095C154.46 23.9132 155.445 23.7651 156.402 23.7651C157.815 23.7651 158.949 23.9303 159.803 24.2607C160.669 24.5798 161.415 24.9614 162.042 25.4058C162.407 25.6678 162.458 25.9697 162.196 26.3115L161.427 27.3369C161.188 27.6673 160.817 27.6559 160.316 27.3027C159.894 27.0065 159.296 26.7274 158.521 26.4653C157.747 26.2033 157.069 26.0723 156.488 26.0723C155.77 26.0723 155.155 26.152 154.642 26.3115C154.129 26.471 153.714 26.7445 153.395 27.1318C153.076 27.5192 152.916 27.9749 152.916 28.499C152.916 28.8978 152.979 29.2567 153.104 29.5757C153.229 29.8833 153.463 30.1681 153.805 30.4302C154.146 30.6922 154.625 30.903 155.24 31.0625C156.197 31.3132 157.069 31.541 157.855 31.7461C158.653 31.9512 159.37 32.2018 160.008 32.498C160.84 32.8854 161.478 33.3127 161.922 33.7798C162.378 34.2469 162.691 34.7539 162.862 35.3008C163.033 35.8363 163.119 36.4344 163.119 37.0952C163.119 38.3143 162.754 39.3454 162.025 40.1885C161.307 41.0316 160.504 41.5955 159.615 41.8804C158.727 42.1538 157.656 42.2905 156.402 42.2905C154.705 42.2905 153.246 42.0513 152.027 41.5728C150.82 41.0828 150.039 40.667 149.686 40.3252ZM165.545 33.0278C165.545 30.2023 166.252 27.9521 167.665 26.2773C169.077 24.6025 171.1 23.7651 173.731 23.7651C175.919 23.7651 177.73 24.5342 179.166 26.0723C180.613 27.599 181.336 30.0428 181.336 33.4038C181.336 33.9165 181.103 34.1729 180.636 34.1729H168.724C168.918 36.3717 169.51 37.9041 170.501 38.77C171.493 39.6245 172.615 40.0518 173.868 40.0518C175.19 40.0518 176.204 39.8296 176.91 39.3853C177.617 38.9409 178.135 38.5023 178.465 38.0693C178.83 37.5908 179.183 37.4997 179.525 37.7959L180.533 38.6675C180.795 38.8953 180.795 39.2087 180.533 39.6074C180.317 39.9378 179.696 40.4676 178.67 41.1968C177.656 41.9259 176.056 42.2905 173.868 42.2905C171.02 42.2905 168.918 41.4531 167.562 39.7783C166.218 38.1035 165.545 35.8534 165.545 33.0278ZM168.656 31.9512H178.312C178.266 30.3561 177.856 28.9604 177.081 27.7642C176.306 26.5565 175.167 25.9526 173.663 25.9526C172.341 25.9526 171.219 26.397 170.296 27.2856C169.374 28.1629 168.827 29.7181 168.656 31.9512ZM186.053 42C185.541 42 185.284 41.7437 185.284 41.231V24.8247C185.284 24.312 185.541 24.0557 186.053 24.0557H187.489C188.001 24.0557 188.258 24.312 188.258 24.8247V26.8755H188.326C188.873 25.8501 189.517 25.0754 190.257 24.5513C190.998 24.0272 191.921 23.7651 193.026 23.7651C193.755 23.7651 194.268 23.8278 194.564 23.9531C194.826 24.0557 194.923 24.2266 194.854 24.4658L194.461 25.8672C194.404 26.0723 194.256 26.152 194.017 26.1064C193.618 26.0267 193.242 25.9868 192.889 25.9868C191.556 25.9868 190.457 26.5907 189.591 27.7983C188.725 28.9946 188.292 30.6296 188.292 32.7031V41.231C188.292 41.7437 188.036 42 187.523 42H186.053ZM198.392 42C197.879 42 197.623 41.7437 197.623 41.231V24.8247C197.623 24.312 197.879 24.0557 198.392 24.0557H199.828C200.34 24.0557 200.597 24.312 200.597 24.8247V26.1919H200.665C201.406 25.3716 202.203 24.762 203.058 24.3633C203.912 23.9645 204.977 23.7651 206.253 23.7651C208.327 23.7651 209.814 24.3519 210.714 25.5254C211.625 26.6875 212.081 28.2826 212.081 30.3105V41.231C212.081 41.7437 211.825 42 211.312 42H209.842C209.33 42 209.073 41.7437 209.073 41.231V31.1309C209.073 28.8978 208.703 27.485 207.962 26.8926C207.222 26.2887 206.282 25.9868 205.143 25.9868C203.661 25.9868 202.539 26.4312 201.776 27.3198C201.013 28.1971 200.631 29.7067 200.631 31.8486V41.231C200.631 41.7437 200.375 42 199.862 42H198.392ZM215.926 37.2148C215.926 35.1868 216.872 33.7 218.763 32.7544C220.666 31.8088 223.503 31.2562 227.274 31.0967V29.9346C227.274 28.8636 227.029 27.9408 226.539 27.166C226.061 26.3799 225.104 25.9868 223.668 25.9868C222.757 25.9868 222.027 26.078 221.48 26.2603C220.934 26.4312 220.432 26.6647 219.977 26.9609C219.532 27.2458 219.105 27.616 218.695 28.0718C218.387 28.4136 218.097 28.4307 217.823 28.123L216.935 27.0977C216.684 26.8128 216.769 26.471 217.191 26.0723C217.795 25.5026 218.382 25.0754 218.951 24.7905C219.521 24.5057 220.227 24.2664 221.07 24.0728C221.925 23.8677 222.791 23.7651 223.668 23.7651C226.049 23.7651 227.747 24.3804 228.761 25.6108C229.775 26.8299 230.282 28.5047 230.282 30.6353V41.231C230.282 41.7437 230.025 42 229.513 42H227.975C227.53 42 227.308 41.7437 227.308 41.231V40.3936H227.274C226.374 41.0999 225.491 41.5955 224.625 41.8804C223.771 42.1538 222.813 42.2905 221.754 42.2905C219.885 42.2905 218.444 41.8462 217.43 40.9575C216.428 40.0575 215.926 38.8099 215.926 37.2148ZM219.037 37.2832C219.037 37.9896 219.185 38.5592 219.481 38.9922C219.777 39.4137 220.187 39.6872 220.711 39.8125C221.236 39.9264 221.782 39.9834 222.352 39.9834C223.229 39.9834 224.061 39.8979 224.847 39.7271C225.633 39.5562 226.442 39.1061 227.274 38.377V33.3354C224.972 33.5063 223.332 33.7171 222.352 33.9678C221.372 34.207 220.575 34.6286 219.959 35.2324C219.344 35.8249 219.037 36.5085 219.037 37.2832ZM235.921 42C235.409 42 235.152 41.7437 235.152 41.231V24.8247C235.152 24.312 235.409 24.0557 235.921 24.0557H237.357C237.87 24.0557 238.126 24.312 238.126 24.8247V26.1919H238.194C238.935 25.3716 239.738 24.762 240.604 24.3633C241.47 23.9645 242.302 23.7651 243.099 23.7651C244.569 23.7651 245.697 24.1354 246.483 24.876C247.28 25.6051 247.793 26.34 248.021 27.0806H248.089C248.716 26.1463 249.508 25.3602 250.465 24.7222C251.422 24.0841 252.442 23.7651 253.524 23.7651C255.335 23.7651 256.703 24.3519 257.625 25.5254C258.548 26.6875 259.01 28.2826 259.01 30.3105V41.231C259.01 41.7437 258.753 42 258.241 42H256.771C256.258 42 256.002 41.7437 256.002 41.231V31.3018C256.002 29.0687 255.723 27.6274 255.165 26.978C254.606 26.3172 253.746 25.9868 252.584 25.9868C251.445 25.9868 250.493 26.4767 249.73 27.4565C248.967 28.425 248.585 29.889 248.585 31.8486V41.231C248.585 41.7437 248.329 42 247.816 42H246.346C245.833 42 245.577 41.7437 245.577 41.231V31.3018C245.577 29.0687 245.298 27.6274 244.74 26.978C244.181 26.3172 243.321 25.9868 242.159 25.9868C241.02 25.9868 240.069 26.4312 239.305 27.3198C238.542 28.1971 238.16 29.7067 238.16 31.8486V41.231C238.16 41.7437 237.904 42 237.391 42H235.921ZM262.855 33.0278C262.855 30.2023 263.561 27.9521 264.974 26.2773C266.387 24.6025 268.409 23.7651 271.041 23.7651C273.229 23.7651 275.04 24.5342 276.476 26.0723C277.923 27.599 278.646 30.0428 278.646 33.4038C278.646 33.9165 278.412 34.1729 277.945 34.1729H266.034C266.227 36.3717 266.82 37.9041 267.811 38.77C268.802 39.6245 269.924 40.0518 271.178 40.0518C272.499 40.0518 273.513 39.8296 274.22 39.3853C274.926 38.9409 275.444 38.5023 275.775 38.0693C276.139 37.5908 276.493 37.4997 276.834 37.7959L277.843 38.6675C278.105 38.8953 278.105 39.2087 277.843 39.6074C277.626 39.9378 277.005 40.4676 275.98 41.1968C274.966 41.9259 273.365 42.2905 271.178 42.2905C268.329 42.2905 266.227 41.4531 264.872 39.7783C263.527 38.1035 262.855 35.8534 262.855 33.0278ZM265.965 31.9512H275.621C275.576 30.3561 275.165 28.9604 274.391 27.7642C273.616 26.5565 272.477 25.9526 270.973 25.9526C269.651 25.9526 268.529 26.397 267.606 27.2856C266.683 28.1629 266.136 29.7181 265.965 31.9512Z" fill="#232526" fill-opacity="0.61"/>
<defs>
<filter id="filter0_d_19_222" x="0" y="0" width="406" height="73" filterUnits="userSpaceOnUse" color-interpolation-filters="sRGB">
<feFlood flood-opacity="0" result="BackgroundImageFix"/>
<feColorMatrix in="SourceAlpha" type="matrix" values="0 0 0 0 0 0 0 0 0 0 0 0 0 0 0 0 0 0 127 0" result="hardAlpha"/>
<feOffset dy="4"/>
<feGaussianBlur stdDeviation="2"/>
<feComposite in2="hardAlpha" operator="out"/>
<feColorMatrix type="matrix" values="0 0 0 0 0 0 0 0 0 0 0 0 0 0 0 0 0 0 0.25 0"/>
<feBlend mode="normal" in2="BackgroundImageFix" result="effect1_dropShadow_19_222"/>
<feBlend mode="normal" in="SourceGraphic" in2="effect1_dropShadow_19_222" result="shape"/>
</filter>
</defs>
</svg>